<svg width="40" height="40" viewBox="0 0 40 40" fill="none" xmlns="http://www.w3.org/2000/svg">
<rect width="40" height="40" fill="#1E1E1E"/>
<rect width="40" height="40" rx="8" fill="white"/>
<g clip-path="url(#clip0_40_2)">
<path d="M8.62545 8.76894C6.58228 10.8912 7.00045 13.1456 7.00045 19.9944C7.00045 25.6819 6.00812 31.3835 11.2016 32.7258C12.8234 33.1429 27.1927 33.1429 28.8123 32.7236C30.9746 32.1657 32.7339 30.4118 32.9744 27.3535C33.008 26.9267 33.008 13.0698 32.9734 12.6343C32.7177 9.37669 30.7124 7.49927 28.0702 7.11902C27.4646 7.03127 27.3433 7.00527 24.2363 6.99986C13.2155 7.00527 10.7997 6.51452 8.62545 8.76894V8.76894Z" fill="#FB3F6C"/>
<path d="M19.9976 10.4005C16.064 10.4005 12.3287 10.0506 10.9019 13.7123C10.3126 15.2246 10.3982 17.1887 10.3982 20.001C10.3982 22.4688 10.3191 24.7883 10.9019 26.2887C12.3254 29.9525 16.0911 29.6015 19.9954 29.6015C23.7622 29.6015 27.6459 29.9937 29.09 26.2887C29.6804 24.7612 29.5938 22.8263 29.5938 20.001C29.5938 16.2505 29.8007 13.8293 27.9818 12.0114C26.1401 10.1698 23.6495 10.4005 19.9933 10.4005H19.9976ZM19.1374 12.1306C27.3426 12.1176 28.3869 11.2054 27.8106 23.8772C27.6059 28.3589 24.1934 27.8671 19.9987 27.8671C12.3504 27.8671 12.1304 27.6483 12.1304 19.9967C12.1304 12.2563 12.7371 12.1349 19.1374 12.1284V12.1306ZM25.1218 13.7242C24.4859 13.7242 23.9702 14.2398 23.9702 14.8758C23.9702 15.5117 24.4859 16.0273 25.1218 16.0273C25.7577 16.0273 26.2734 15.5117 26.2734 14.8758C26.2734 14.2398 25.7577 13.7242 25.1218 13.7242V13.7242ZM19.9976 15.0708C17.2752 15.0708 15.0684 17.2786 15.0684 20.001C15.0684 22.7234 17.2752 24.9302 19.9976 24.9302C22.72 24.9302 24.9257 22.7234 24.9257 20.001C24.9257 17.2786 22.72 15.0708 19.9976 15.0708V15.0708ZM19.9976 16.8008C24.228 16.8008 24.2334 23.2012 19.9976 23.2012C15.7683 23.2012 15.7618 16.8008 19.9976 16.8008Z" fill="white"/>
</g>
<defs>
<clipPath id="clip0_40_2">
<rect width="26" height="26" fill="white" transform="translate(7 7)"/>
</clipPath>
</defs>
</svg>
