<svg width="40" height="40" viewBox="0 0 40 40" fill="none" xmlns="http://www.w3.org/2000/svg">
<rect width="40" height="40" fill="#1E1E1E"/>
<rect width="40" height="40" rx="8" fill="white"/>
<g clip-path="url(#clip0_40_2)">
<path d="M30.9946 30.9999V30.9989H31.0001V22.9304C31.0001 18.9833 30.1503 15.9427 25.5358 15.9427C23.3175 15.9427 21.8288 17.16 21.2211 18.3141H21.1569V16.3112H16.7816V30.9989H21.3375V23.7261C21.3375 21.8112 21.7005 19.9595 24.0719 19.9595C26.4085 19.9595 26.4433 22.1449 26.4433 23.8489V30.9999H30.9946Z" fill="#FB3F6C"/>
<path d="M9.3631 16.3122H13.9244V30.9999H9.3631V16.3122Z" fill="#FB3F6C"/>
<path d="M11.6418 9C10.1834 9 9 10.1834 9 11.6418C9 13.1003 10.1834 14.3084 11.6418 14.3084C13.1003 14.3084 14.2837 13.1003 14.2837 11.6418C14.2828 10.1834 13.0993 9 11.6418 9V9Z" fill="#FB3F6C"/>
</g>
<defs>
<clipPath id="clip0_40_2">
<rect width="22" height="22" fill="white" transform="translate(9 9)"/>
</clipPath>
</defs>
</svg>
