<svg width="40" height="40" viewBox="0 0 40 40" fill="none" xmlns="http://www.w3.org/2000/svg">
<rect width="40" height="40"/>
<path opacity="0.4" d="M36.6667 13.0167V25.2667C36.1833 25.0333 35.65 24.8667 35.05 24.7667L34.5333 24.6833L34.1 23.7833C33.1833 21.9167 31.6833 20.8333 30 20.8333C28.3167 20.8333 26.8167 21.9167 25.9 23.7833L25.45 24.6833L24.95 24.7667C22.9667 25.1 21.5333 26.2 21.0166 27.7667C20.5166 29.35 21.0333 31.0833 22.45 32.5167L22.9667 33.0333L22.9167 33.2333C22.5833 34.7167 22.7167 35.85 23.0333 36.6667H13.0167C6.94999 36.6667 3.33333 33.05 3.33333 26.9833V13.0167C3.33333 6.95 6.94999 3.33333 13.0167 3.33333H26.9833C33.05 3.33333 36.6667 6.95 36.6667 13.0167Z" fill="#FB3F6C"/>
<path d="M31.8666 24.9L32.4 25.9833C32.6667 26.5167 33.35 27.0167 33.9167 27.1167L34.6333 27.2333C36.8167 27.6 37.3166 29.2 35.7666 30.7667L35.1 31.4333C34.65 31.8833 34.4167 32.75 34.55 33.3833L34.6333 33.7833C35.2333 36.4167 33.8333 37.4333 31.55 36.05L31.0667 35.75C30.4833 35.4 29.5166 35.4 28.9333 35.75L28.45 36.05C26.15 37.4333 24.7667 36.4167 25.3667 33.7833L25.45 33.3833C25.5833 32.7667 25.35 31.8833 24.9 31.4333L24.2333 30.7667C22.6833 29.1833 23.1833 27.6 25.3667 27.2333L26.0833 27.1167C26.6666 27.0167 27.3333 26.5167 27.6 25.9833L28.1333 24.9C29.1667 22.8167 30.8333 22.8167 31.8666 24.9Z" fill="#FB3F6C"/>
<path fill-rule="evenodd" clip-rule="evenodd" d="M26.8825 13.1954C27.4281 13.6183 27.5276 14.4035 27.1046 14.9491L23.2472 19.9253C22.2558 21.1792 20.4277 21.4079 19.1524 20.4224L19.1437 20.4157L16.0994 18.0202C15.9113 17.8773 15.649 17.9129 15.5062 18.0971C15.506 18.0973 15.5063 18.0969 15.5062 18.0971L11.5403 23.2461C11.119 23.793 10.3342 23.8949 9.78723 23.4736C9.2403 23.0524 9.13843 22.2675 9.55969 21.7206L13.5276 16.569C14.5174 15.288 16.3528 15.0565 17.631 16.0442L17.6397 16.0509L20.684 18.4465C20.874 18.5908 21.1418 18.5536 21.2836 18.3778L25.1288 13.4175C25.5517 12.8719 26.3369 12.7724 26.8825 13.1954Z" fill="#FB3F6C"/>
</svg>
