<svg width="40" height="40" viewBox="0 0 40 40" fill="none" xmlns="http://www.w3.org/2000/svg">
<rect width="40" height="40"/>
<path opacity="0.4" d="M31.6667 17.1333V29.05C31.6167 33.8 30.3166 35 25.3666 35H9.63338C4.60004 35 3.33333 33.75 3.33333 28.7833V17.1333C3.33333 12.6333 4.38333 11.1833 8.33333 10.95C8.73333 10.9333 9.16671 10.9167 9.63338 10.9167H25.3666C30.3999 10.9167 31.6667 12.1667 31.6667 17.1333Z" fill="#80CC28"/>
<path d="M36.6667 11.2167V22.8667C36.6667 27.3667 35.6167 28.8167 31.6667 29.05V17.1333C31.6667 12.1667 30.3999 10.9167 25.3666 10.9167H9.63338C9.16671 10.9167 8.73333 10.9333 8.33333 10.95C8.38333 6.2 9.68338 5 14.6334 5H30.3666C35.3999 5 36.6667 6.25 36.6667 11.2167Z" fill="#80CC28"/>
<path d="M11.6 30.9333H8.73332C8.04999 30.9333 7.48332 30.3667 7.48332 29.6833C7.48332 29 8.04999 28.4333 8.73332 28.4333H11.6C12.2834 28.4333 12.85 29 12.85 29.6833C12.85 30.3667 12.3 30.9333 11.6 30.9333Z" fill="#80CC28"/>
<path d="M20.9166 30.9333H15.1833C14.5 30.9333 13.9333 30.3667 13.9333 29.6833C13.9333 29 14.5 28.4333 15.1833 28.4333H20.9166C21.6 28.4333 22.1666 29 22.1666 29.6833C22.1666 30.3667 21.6166 30.9333 20.9166 30.9333Z" fill="#80CC28"/>
<path d="M31.6667 19.7667H3.33333V22.2667H31.6667V19.7667Z" fill="#80CC28"/>
</svg>
