<svg width="30" height="30" viewBox="0 0 30 30" fill="none" xmlns="http://www.w3.org/2000/svg">
<rect width="30" height="30"/>
<path opacity="0.4" d="M13.4375 3.0625C14.3 2.325 15.7125 2.325 16.5875 3.0625L18.5625 4.7625C18.9375 5.0875 19.6375 5.35 20.1375 5.35H22.2625C23.5875 5.35 24.675 6.4375 24.675 7.7625V9.8875C24.675 10.375 24.9375 11.0875 25.2625 11.4625L26.9625 13.4375C27.7 14.3 27.7 15.7125 26.9625 16.5875L25.2625 18.5625C24.9375 18.9375 24.675 19.6375 24.675 20.1375V22.2625C24.675 23.5875 23.5875 24.675 22.2625 24.675H20.1375C19.65 24.675 18.9375 24.9375 18.5625 25.2625L16.5875 26.9625C15.725 27.7 14.3125 27.7 13.4375 26.9625L11.4625 25.2625C11.0875 24.9375 10.3875 24.675 9.88751 24.675H7.72501C6.40001 24.675 5.31251 23.5875 5.31251 22.2625V20.125C5.31251 19.6375 5.05001 18.9375 4.73751 18.5625L3.05001 16.575C2.32501 15.7125 2.32501 14.3125 3.05001 13.45L4.73751 11.4625C5.05001 11.0875 5.31251 10.3875 5.31251 9.9V7.75C5.31251 6.425 6.40001 5.3375 7.72501 5.3375H9.88751C10.375 5.3375 11.0875 5.075 11.4625 4.75L13.4375 3.0625Z" fill="#F07922"/>
<path d="M13.4875 18.9625C13.2375 18.9625 13 18.8625 12.825 18.6875L9.8 15.6625C9.4375 15.3 9.4375 14.7 9.8 14.3375C10.1625 13.975 10.7625 13.975 11.125 14.3375L13.4875 16.7L18.8625 11.325C19.225 10.9625 19.825 10.9625 20.1875 11.325C20.55 11.6875 20.55 12.2875 20.1875 12.65L14.15 18.6875C13.975 18.8625 13.7375 18.9625 13.4875 18.9625Z" fill="#F07922"/>
</svg>
